<mxfile host="app.diagrams.net" modified="2023-12-13T20:51:07.257Z" agent="Mozilla/5.0 (Windows NT 10.0; Win64; x64) AppleWebKit/537.36 (KHTML, like Gecko) Chrome/120.0.0.0 Safari/537.36 Edg/120.0.0.0" etag="hO7YAWv6LThRLpfoPefp" version="22.1.8" type="device">
  <diagram name="Page-1" id="cocnyw6qxqhmxCxYRzxH">
    <mxGraphModel dx="1666" dy="793" grid="1" gridSize="10" guides="1" tooltips="1" connect="1" arrows="1" fold="1" page="1" pageScale="1" pageWidth="850" pageHeight="1100" math="0" shadow="0">
      <root>
        <mxCell id="0" />
        <mxCell id="1" parent="0" />
        <mxCell id="i8QFmwhTNceR6wA6rM9J-2" value="&lt;font style=&quot;font-size: 14px;&quot;&gt;&lt;b&gt;Graduation Presentation&lt;/b&gt;&lt;/font&gt;" style="rounded=1;whiteSpace=wrap;html=1;fillColor=#4D9900;" vertex="1" parent="1">
          <mxGeometry x="360" y="1000" width="120" height="60" as="geometry" />
        </mxCell>
        <mxCell id="i8QFmwhTNceR6wA6rM9J-24" style="edgeStyle=orthogonalEdgeStyle;orthogonalLoop=1;jettySize=auto;html=1;entryX=0.5;entryY=0;entryDx=0;entryDy=0;fillColor=#666600;" edge="1" parent="1" source="i8QFmwhTNceR6wA6rM9J-3" target="i8QFmwhTNceR6wA6rM9J-13">
          <mxGeometry relative="1" as="geometry" />
        </mxCell>
        <mxCell id="i8QFmwhTNceR6wA6rM9J-3" value="&lt;font style=&quot;font-size: 14px;&quot;&gt;&lt;b&gt;Build Docker Images&lt;/b&gt;&lt;/font&gt;" style="rounded=0;whiteSpace=wrap;html=1;fillColor=#666600;" vertex="1" parent="1">
          <mxGeometry x="20" y="80" width="120" height="60" as="geometry" />
        </mxCell>
        <mxCell id="i8QFmwhTNceR6wA6rM9J-36" style="edgeStyle=orthogonalEdgeStyle;orthogonalLoop=1;jettySize=auto;html=1;fillColor=#666600;" edge="1" parent="1" source="i8QFmwhTNceR6wA6rM9J-4">
          <mxGeometry relative="1" as="geometry">
            <mxPoint x="150" y="490" as="targetPoint" />
          </mxGeometry>
        </mxCell>
        <mxCell id="i8QFmwhTNceR6wA6rM9J-4" value="&lt;b&gt;&lt;font style=&quot;font-size: 14px;&quot;&gt;Run Clean_data.py&lt;/font&gt;&lt;/b&gt;" style="rounded=0;whiteSpace=wrap;html=1;fillColor=#666600;" vertex="1" parent="1">
          <mxGeometry x="170" y="380" width="120" height="60" as="geometry" />
        </mxCell>
        <mxCell id="i8QFmwhTNceR6wA6rM9J-35" style="edgeStyle=orthogonalEdgeStyle;orthogonalLoop=1;jettySize=auto;html=1;entryX=0.5;entryY=0;entryDx=0;entryDy=0;fillColor=#666600;" edge="1" parent="1" source="i8QFmwhTNceR6wA6rM9J-5" target="i8QFmwhTNceR6wA6rM9J-15">
          <mxGeometry relative="1" as="geometry" />
        </mxCell>
        <mxCell id="i8QFmwhTNceR6wA6rM9J-5" value="&lt;b&gt;&lt;font style=&quot;font-size: 14px;&quot;&gt;Run Spark_consumer.py&lt;/font&gt;&lt;/b&gt;" style="rounded=0;whiteSpace=wrap;html=1;fillColor=#666600;" vertex="1" parent="1">
          <mxGeometry x="10" y="380" width="140" height="60" as="geometry" />
        </mxCell>
        <mxCell id="i8QFmwhTNceR6wA6rM9J-33" style="edgeStyle=orthogonalEdgeStyle;orthogonalLoop=1;jettySize=auto;html=1;entryX=0.5;entryY=0;entryDx=0;entryDy=0;" edge="1" parent="1" source="i8QFmwhTNceR6wA6rM9J-6" target="i8QFmwhTNceR6wA6rM9J-5">
          <mxGeometry relative="1" as="geometry" />
        </mxCell>
        <mxCell id="i8QFmwhTNceR6wA6rM9J-34" style="edgeStyle=orthogonalEdgeStyle;orthogonalLoop=1;jettySize=auto;html=1;" edge="1" parent="1" source="i8QFmwhTNceR6wA6rM9J-6" target="i8QFmwhTNceR6wA6rM9J-4">
          <mxGeometry relative="1" as="geometry" />
        </mxCell>
        <mxCell id="i8QFmwhTNceR6wA6rM9J-6" value="&lt;b&gt;&lt;font style=&quot;font-size: 14px;&quot;&gt;Open Jupyter Notebook in Docker Container&lt;/font&gt;&lt;/b&gt;" style="rounded=0;whiteSpace=wrap;html=1;fillColor=#666600;" vertex="1" parent="1">
          <mxGeometry x="20" y="250" width="120" height="60" as="geometry" />
        </mxCell>
        <mxCell id="i8QFmwhTNceR6wA6rM9J-43" style="edgeStyle=orthogonalEdgeStyle;orthogonalLoop=1;jettySize=auto;html=1;fillColor=#FFF2CC;" edge="1" parent="1" source="i8QFmwhTNceR6wA6rM9J-8" target="i8QFmwhTNceR6wA6rM9J-18">
          <mxGeometry relative="1" as="geometry" />
        </mxCell>
        <mxCell id="i8QFmwhTNceR6wA6rM9J-8" value="&lt;font style=&quot;font-size: 14px;&quot;&gt;&lt;b&gt;EDA in Jupyter Notebook&lt;/b&gt;&lt;/font&gt;" style="rounded=0;whiteSpace=wrap;html=1;fillColor=#FFF2CC;" vertex="1" parent="1">
          <mxGeometry x="360" y="720" width="120" height="60" as="geometry" />
        </mxCell>
        <mxCell id="i8QFmwhTNceR6wA6rM9J-28" style="edgeStyle=orthogonalEdgeStyle;orthogonalLoop=1;jettySize=auto;html=1;" edge="1" parent="1" source="i8QFmwhTNceR6wA6rM9J-9" target="i8QFmwhTNceR6wA6rM9J-10">
          <mxGeometry relative="1" as="geometry" />
        </mxCell>
        <mxCell id="i8QFmwhTNceR6wA6rM9J-9" value="&lt;b&gt;&lt;font style=&quot;font-size: 14px;&quot;&gt;Register and Obtain API Credentials&lt;/font&gt;&lt;/b&gt;" style="rounded=0;whiteSpace=wrap;html=1;fillColor=#007FFF;" vertex="1" parent="1">
          <mxGeometry x="700" y="80" width="120" height="60" as="geometry" />
        </mxCell>
        <mxCell id="i8QFmwhTNceR6wA6rM9J-10" value="&lt;b&gt;&lt;font style=&quot;font-size: 14px;&quot;&gt;Setup Environmental variable files&lt;/font&gt;&lt;/b&gt;" style="rounded=0;whiteSpace=wrap;html=1;fillColor=#007FFF;" vertex="1" parent="1">
          <mxGeometry x="700" y="160" width="120" height="60" as="geometry" />
        </mxCell>
        <mxCell id="i8QFmwhTNceR6wA6rM9J-40" style="edgeStyle=orthogonalEdgeStyle;orthogonalLoop=1;jettySize=auto;html=1;" edge="1" parent="1" source="i8QFmwhTNceR6wA6rM9J-11" target="i8QFmwhTNceR6wA6rM9J-8">
          <mxGeometry relative="1" as="geometry" />
        </mxCell>
        <mxCell id="i8QFmwhTNceR6wA6rM9J-11" value="&lt;font style=&quot;font-size: 14px;&quot;&gt;&lt;b&gt;Data from PG DB to Jupyter Notebook&lt;/b&gt;&lt;/font&gt;" style="shape=parallelogram;perimeter=parallelogramPerimeter;whiteSpace=wrap;html=1;fixedSize=1;fillColor=#66FFFF;" vertex="1" parent="1">
          <mxGeometry x="170" y="590" width="250" height="60" as="geometry" />
        </mxCell>
        <mxCell id="i8QFmwhTNceR6wA6rM9J-39" style="edgeStyle=orthogonalEdgeStyle;orthogonalLoop=1;jettySize=auto;html=1;fillColor=#66FFFF;" edge="1" parent="1" source="i8QFmwhTNceR6wA6rM9J-12" target="i8QFmwhTNceR6wA6rM9J-11">
          <mxGeometry relative="1" as="geometry" />
        </mxCell>
        <mxCell id="i8QFmwhTNceR6wA6rM9J-41" style="edgeStyle=orthogonalEdgeStyle;orthogonalLoop=1;jettySize=auto;html=1;entryX=0.5;entryY=0;entryDx=0;entryDy=0;fillColor=#66FFFF;" edge="1" parent="1" source="i8QFmwhTNceR6wA6rM9J-12" target="i8QFmwhTNceR6wA6rM9J-17">
          <mxGeometry relative="1" as="geometry" />
        </mxCell>
        <mxCell id="i8QFmwhTNceR6wA6rM9J-12" value="&lt;font style=&quot;font-size: 14px;&quot;&gt;&lt;b&gt;Data to PostGres DB in AWS&lt;/b&gt;&lt;/font&gt;" style="shape=parallelogram;perimeter=parallelogramPerimeter;whiteSpace=wrap;html=1;fixedSize=1;fillColor=#66FFFF;" vertex="1" parent="1">
          <mxGeometry x="330" y="490" width="190" height="60" as="geometry" />
        </mxCell>
        <mxCell id="i8QFmwhTNceR6wA6rM9J-32" style="edgeStyle=orthogonalEdgeStyle;orthogonalLoop=1;jettySize=auto;html=1;entryX=0.5;entryY=0;entryDx=0;entryDy=0;fillColor=#666600;" edge="1" parent="1" source="i8QFmwhTNceR6wA6rM9J-13" target="i8QFmwhTNceR6wA6rM9J-6">
          <mxGeometry relative="1" as="geometry" />
        </mxCell>
        <mxCell id="i8QFmwhTNceR6wA6rM9J-13" value="&lt;font style=&quot;font-size: 14px;&quot;&gt;&lt;b&gt;Compose Docker Container&lt;/b&gt;&lt;/font&gt;" style="rounded=0;whiteSpace=wrap;html=1;fillColor=#666600;" vertex="1" parent="1">
          <mxGeometry x="20" y="160" width="120" height="60" as="geometry" />
        </mxCell>
        <mxCell id="i8QFmwhTNceR6wA6rM9J-14" value="&lt;b&gt;&lt;font style=&quot;font-size: 14px;&quot;&gt;Create Darwin Table in PG DB AWS&lt;/font&gt;&lt;/b&gt;" style="rounded=0;whiteSpace=wrap;html=1;fillColor=#FF8000;" vertex="1" parent="1">
          <mxGeometry x="365" y="160" width="120" height="60" as="geometry" />
        </mxCell>
        <mxCell id="i8QFmwhTNceR6wA6rM9J-37" style="edgeStyle=orthogonalEdgeStyle;orthogonalLoop=1;jettySize=auto;html=1;" edge="1" parent="1" source="i8QFmwhTNceR6wA6rM9J-15" target="i8QFmwhTNceR6wA6rM9J-12">
          <mxGeometry relative="1" as="geometry" />
        </mxCell>
        <mxCell id="i8QFmwhTNceR6wA6rM9J-15" value="&lt;b&gt;&lt;font style=&quot;font-size: 14px;&quot;&gt;Run pipeline to populate data in AWS DB&lt;/font&gt;&lt;/b&gt;" style="rounded=0;whiteSpace=wrap;html=1;fillColor=#666600;" vertex="1" parent="1">
          <mxGeometry x="90" y="490" width="120" height="60" as="geometry" />
        </mxCell>
        <mxCell id="i8QFmwhTNceR6wA6rM9J-42" style="edgeStyle=orthogonalEdgeStyle;orthogonalLoop=1;jettySize=auto;html=1;entryX=0.5;entryY=0;entryDx=0;entryDy=0;" edge="1" parent="1" source="i8QFmwhTNceR6wA6rM9J-17" target="i8QFmwhTNceR6wA6rM9J-8">
          <mxGeometry relative="1" as="geometry" />
        </mxCell>
        <mxCell id="i8QFmwhTNceR6wA6rM9J-17" value="&lt;font style=&quot;font-size: 14px;&quot;&gt;&lt;b&gt;Add railroad.csv into PG DB&amp;nbsp;&lt;/b&gt;&lt;/font&gt;" style="shape=parallelogram;perimeter=parallelogramPerimeter;whiteSpace=wrap;html=1;fixedSize=1;fillColor=#66FFFF;" vertex="1" parent="1">
          <mxGeometry x="440" y="590" width="220" height="60" as="geometry" />
        </mxCell>
        <mxCell id="i8QFmwhTNceR6wA6rM9J-44" style="edgeStyle=orthogonalEdgeStyle;orthogonalLoop=1;jettySize=auto;html=1;entryX=0.5;entryY=0;entryDx=0;entryDy=0;fillColor=#FFF2CC;" edge="1" parent="1" source="i8QFmwhTNceR6wA6rM9J-18" target="i8QFmwhTNceR6wA6rM9J-19">
          <mxGeometry relative="1" as="geometry" />
        </mxCell>
        <mxCell id="i8QFmwhTNceR6wA6rM9J-18" value="&lt;font style=&quot;font-size: 14px;&quot;&gt;&lt;b&gt;Create data visualization&lt;/b&gt;&lt;/font&gt;" style="rounded=0;whiteSpace=wrap;html=1;fillColor=#FFF2CC;" vertex="1" parent="1">
          <mxGeometry x="360" y="810" width="120" height="60" as="geometry" />
        </mxCell>
        <mxCell id="i8QFmwhTNceR6wA6rM9J-47" style="edgeStyle=orthogonalEdgeStyle;orthogonalLoop=1;jettySize=auto;html=1;entryX=0.5;entryY=0;entryDx=0;entryDy=0;" edge="1" parent="1" source="i8QFmwhTNceR6wA6rM9J-19" target="i8QFmwhTNceR6wA6rM9J-2">
          <mxGeometry relative="1" as="geometry" />
        </mxCell>
        <mxCell id="i8QFmwhTNceR6wA6rM9J-19" value="&lt;font style=&quot;font-size: 14px;&quot;&gt;&lt;b&gt;Compile results in readable format&lt;/b&gt;&lt;/font&gt;" style="rounded=0;whiteSpace=wrap;html=1;fillColor=#FFF2CC;" vertex="1" parent="1">
          <mxGeometry x="360" y="900" width="120" height="60" as="geometry" />
        </mxCell>
        <mxCell id="i8QFmwhTNceR6wA6rM9J-20" value="&lt;b&gt;&lt;font style=&quot;font-size: 14px;&quot;&gt;Create GitHub for storage&lt;/font&gt;&lt;/b&gt;" style="rounded=0;whiteSpace=wrap;html=1;fillColor=#FF66B3;" vertex="1" parent="1">
          <mxGeometry x="180" y="160" width="120" height="60" as="geometry" />
        </mxCell>
        <mxCell id="i8QFmwhTNceR6wA6rM9J-21" value="&lt;b&gt;&lt;font style=&quot;font-size: 14px;&quot;&gt;Pitch Video&lt;/font&gt;&lt;/b&gt;" style="rounded=0;whiteSpace=wrap;html=1;fillColor=#97D077;" vertex="1" parent="1">
          <mxGeometry x="540" y="160" width="120" height="60" as="geometry" />
        </mxCell>
        <mxCell id="i8QFmwhTNceR6wA6rM9J-23" style="edgeStyle=orthogonalEdgeStyle;orthogonalLoop=1;jettySize=auto;html=1;entryX=0.5;entryY=0;entryDx=0;entryDy=0;" edge="1" parent="1" source="i8QFmwhTNceR6wA6rM9J-22" target="i8QFmwhTNceR6wA6rM9J-3">
          <mxGeometry relative="1" as="geometry" />
        </mxCell>
        <mxCell id="i8QFmwhTNceR6wA6rM9J-27" style="edgeStyle=orthogonalEdgeStyle;orthogonalLoop=1;jettySize=auto;html=1;entryX=0.5;entryY=0;entryDx=0;entryDy=0;" edge="1" parent="1" source="i8QFmwhTNceR6wA6rM9J-22" target="i8QFmwhTNceR6wA6rM9J-9">
          <mxGeometry relative="1" as="geometry" />
        </mxCell>
        <mxCell id="i8QFmwhTNceR6wA6rM9J-30" style="edgeStyle=orthogonalEdgeStyle;orthogonalLoop=1;jettySize=auto;html=1;entryX=0.5;entryY=0;entryDx=0;entryDy=0;" edge="1" parent="1" source="i8QFmwhTNceR6wA6rM9J-22" target="i8QFmwhTNceR6wA6rM9J-29">
          <mxGeometry relative="1" as="geometry" />
        </mxCell>
        <mxCell id="i8QFmwhTNceR6wA6rM9J-45" style="edgeStyle=orthogonalEdgeStyle;orthogonalLoop=1;jettySize=auto;html=1;exitX=0;exitY=0.75;exitDx=0;exitDy=0;entryX=0.5;entryY=0;entryDx=0;entryDy=0;" edge="1" parent="1" source="i8QFmwhTNceR6wA6rM9J-22" target="i8QFmwhTNceR6wA6rM9J-20">
          <mxGeometry relative="1" as="geometry" />
        </mxCell>
        <mxCell id="i8QFmwhTNceR6wA6rM9J-46" style="edgeStyle=orthogonalEdgeStyle;orthogonalLoop=1;jettySize=auto;html=1;exitX=1;exitY=0.75;exitDx=0;exitDy=0;" edge="1" parent="1" source="i8QFmwhTNceR6wA6rM9J-22" target="i8QFmwhTNceR6wA6rM9J-21">
          <mxGeometry relative="1" as="geometry" />
        </mxCell>
        <mxCell id="i8QFmwhTNceR6wA6rM9J-22" value="&lt;b&gt;&lt;font style=&quot;font-size: 14px;&quot;&gt;Final Project start&lt;/font&gt;&lt;/b&gt;" style="rounded=1;whiteSpace=wrap;html=1;fillColor=#00FFFF;" vertex="1" parent="1">
          <mxGeometry x="365" width="120" height="60" as="geometry" />
        </mxCell>
        <mxCell id="i8QFmwhTNceR6wA6rM9J-31" style="edgeStyle=orthogonalEdgeStyle;orthogonalLoop=1;jettySize=auto;html=1;" edge="1" parent="1" source="i8QFmwhTNceR6wA6rM9J-29" target="i8QFmwhTNceR6wA6rM9J-14">
          <mxGeometry relative="1" as="geometry" />
        </mxCell>
        <mxCell id="i8QFmwhTNceR6wA6rM9J-29" value="&lt;b&gt;&lt;font style=&quot;font-size: 14px;&quot;&gt;Create PG DB AWS&lt;/font&gt;&lt;/b&gt;" style="rounded=0;whiteSpace=wrap;html=1;fillColor=#FF8000;" vertex="1" parent="1">
          <mxGeometry x="365" y="80" width="120" height="60" as="geometry" />
        </mxCell>
      </root>
    </mxGraphModel>
  </diagram>
</mxfile>
